<svg width="1705" height="1540" viewBox="0 0 1705 1540" fill="none" xmlns="http://www.w3.org/2000/svg">
<path d="M694.057 833.968C699.183 838.094 705.487 842.953 706.055 851.346C713.889 967.122 686.622 1180.5 643.756 1275.83C638.582 1266.7 632.665 1257.88 627.068 1249.16C644.552 1166.7 661.956 1110.26 672.319 1021.18C677.916 973.07 679.662 865.446 694.057 833.968Z" fill="white"/>
<path d="M1058.89 274.957C1062.7 284.306 1070.11 302.453 1068.65 312.904C1060.66 369.489 1042.61 431.875 1035.12 488.146C1026.69 551.784 1027.31 614.989 1024.67 678.246C1018.7 686.295 1018.05 683.633 1006.9 684.933C1001.2 675.059 999.159 672.175 998.288 658.981C992.638 573.72 1020.96 336.123 1058.89 274.957Z" fill="white"/>
<path d="M1008.97 142.524C1026.74 159.194 1016.33 181.781 1006.18 200.783C993.859 223.868 979.697 245.052 967.428 268.448C935.795 328.689 917.977 402.004 901.6 471.827C893.711 505.454 895.129 547.14 883.307 578.418C881.964 581.723 877.559 580.31 873.502 580.26C862.153 576.614 864.666 579.721 857.822 569.841C856.802 563.693 856.503 561.227 858.793 555.737C868.3 533.103 866.185 507.69 870.516 482.804C892.84 354.123 938.484 234.598 1008.97 142.524Z" fill="white"/>
<path d="M599.053 447.265C653.636 749.332 1154.04 779.484 1124.1 1149.96C1114.56 1104.65 1107.92 1050.79 1087.34 1009.99C968.473 779.2 706.754 756.108 599.864 509.456C586.203 477.931 595.618 476.658 598.14 447.272L599.053 447.265Z" fill="white"/>
<path d="M579.715 294.594C588.284 310.275 583.276 364.515 587.198 388.662C590.665 410.01 592.808 426.155 599.053 447.265L598.14 447.272C591.709 453.352 591.845 452.799 587.474 461.442L584.642 460.931C576.788 426.311 569.799 322.611 579.715 294.594Z" fill="white"/>
<path fill-rule="evenodd" clip-rule="evenodd" d="M841.422 0.916084C938.882 -6.19078 993.386 29.2309 1081.94 66.3594C1105.6 60.168 1142.31 37.5565 1166.9 26.8878C1257.57 -16.6859 1362.67 3.22188 1447.29 60.4083C1801.46 299.793 1795.42 1320.03 1399.2 1496.35C1291.57 1544.23 1180.29 1521.24 1081.41 1455.05C1022.33 1492.84 930.918 1549.58 863.796 1537.35C796.301 1537.22 725.931 1518.71 663.759 1483.02C613.309 1454.05 603.625 1470.62 557.916 1494.55C470.349 1540.39 361.597 1526.82 276.777 1478.68C169.795 1417.33 92.1703 1288.96 50.7099 1143.58C-52.9822 780.02 -10.0785 201.609 295.926 38.3389C423.495 -29.7235 523.566 8.10995 643.473 81.044C691.361 28.0878 780.845 1.85499 841.422 0.916084ZM571.883 155.448C516.699 43.1302 395.259 19.0495 319.277 110.889C271.197 169.001 245.919 240.15 227.397 322.737C181.915 525.535 176.701 746.295 191.397 955.962C195.817 1019.01 200.556 1079.36 213.881 1139.97C246.173 1326.28 315.848 1506.07 481.17 1461.07C500.829 1455.72 522.389 1444.96 525.087 1413.45C526.707 1322.1 524.785 1229.65 525.606 1138.13C525.823 1115.64 523.427 1075.21 544.312 1070.97C565.25 1084.13 562.274 1140.97 570.674 1172.08C603.936 1295.34 652.191 1390.4 742.784 1446.27C826.763 1498.06 944.955 1497.29 1009.21 1396.68C946.772 1287.85 909.365 1235.2 878.952 1096.16C874.126 1074.13 866.165 1006.99 863.068 995.207L862.925 994.688C862.097 995.151 861.305 995.567 860.545 995.937C860.291 996.06 860.041 996.178 859.794 996.291C859.3 996.516 858.818 996.722 858.348 996.906C857.876 997.091 857.416 997.256 856.964 997.4C856.512 997.545 856.068 997.67 855.632 997.775C855.413 997.828 855.196 997.877 854.98 997.92C853.903 998.136 852.86 998.232 851.821 998.214C851.294 998.205 850.767 998.162 850.237 998.095C848.053 997.817 845.814 997.056 843.234 995.858C842.741 995.629 842.235 995.384 841.715 995.124C841.455 994.994 841.191 994.86 840.924 994.722C840.66 995.31 840.386 996.483 840.1 998.121C840.068 998.307 840.037 998.499 840.005 998.697C839.004 1004.75 837.866 1016.24 836.59 1028.19C835.869 1034.94 835.102 1041.83 834.289 1047.96C833.722 1052.24 833.132 1056.15 832.518 1059.39C832.38 1060.12 832.239 1060.82 832.098 1061.48C832.061 1061.65 832.026 1061.82 831.989 1061.98C831.46 1064.46 830.926 1066.93 830.388 1069.4C829.42 1073.83 828.437 1078.25 827.438 1082.66C826.093 1088.6 824.717 1094.51 823.308 1100.4C822.842 1102.35 822.373 1104.3 821.899 1106.24C821.543 1107.7 821.185 1109.16 820.825 1110.62C819.628 1115.46 818.404 1120.28 817.155 1125.08C815.917 1129.84 814.653 1134.58 813.36 1139.31C811.722 1145.3 810.039 1151.25 808.306 1157.17C807.393 1160.29 806.467 1163.4 805.526 1166.5C802.929 1175.06 800.223 1183.54 797.396 1191.94C796.619 1194.25 795.832 1196.55 795.036 1198.85C791.582 1208.82 787.953 1218.68 784.124 1228.4C783.233 1230.66 782.328 1232.92 781.415 1235.17C776.357 1247.62 770.963 1259.86 765.182 1271.86C764.587 1273.1 763.989 1274.33 763.386 1275.56C762.655 1277.05 761.917 1278.54 761.174 1280.02C757.968 1286.42 754.647 1292.75 751.206 1299C749.289 1302.48 747.335 1305.94 745.342 1309.38C744.63 1310.6 743.915 1311.83 743.193 1313.05C742.681 1313.91 742.165 1314.78 741.648 1315.64C741.073 1316.6 740.495 1317.56 739.913 1318.51C738.808 1320.33 737.692 1322.14 736.564 1323.94C735.867 1325.06 735.103 1326.36 734.278 1327.81C731.701 1332.35 728.546 1338.34 725.081 1344.58C724.249 1346.08 723.4 1347.59 722.536 1349.1C721.456 1350.99 720.354 1352.87 719.237 1354.71C718.79 1355.45 718.342 1356.19 717.891 1356.91C716.086 1359.81 714.249 1362.58 712.411 1365.09C712.181 1365.4 711.952 1365.71 711.723 1366.02C710.804 1367.24 709.885 1368.39 708.971 1369.45C708.742 1369.72 708.513 1369.98 708.285 1370.24C706.347 1372.41 704.431 1374.17 702.574 1375.36C702.356 1375.5 702.14 1375.63 701.924 1375.76C701.814 1375.82 701.705 1375.88 701.597 1375.94C701.381 1376.05 701.166 1376.16 700.952 1376.26C700.417 1376.51 699.887 1376.7 699.364 1376.84C699.051 1376.92 698.74 1376.98 698.432 1377.02C698.226 1377.05 698.021 1377.07 697.818 1377.08C697.716 1377.08 697.615 1377.08 697.514 1377.08C697.413 1377.08 697.312 1377.07 697.212 1377.07C696.223 1375.7 695.37 1374.24 694.624 1372.73C694.326 1372.12 694.044 1371.5 693.779 1370.87C692.453 1367.73 691.521 1364.34 690.777 1360.79C690.703 1360.44 690.63 1360.08 690.559 1359.72C690.418 1359.01 690.282 1358.29 690.152 1357.56C690.087 1357.2 690.024 1356.83 689.962 1356.46C689.273 1352.44 688.713 1348.26 688.009 1344.06C688.037 1344.01 688.065 1343.97 688.094 1343.93C693.216 1336.49 698.087 1329.1 702.732 1321.74C703.851 1319.96 704.954 1318.19 706.047 1316.42C708.773 1312 711.42 1307.59 713.993 1303.18C715.17 1301.16 716.334 1299.14 717.48 1297.13C718.531 1295.28 719.566 1293.42 720.593 1291.57C722.228 1288.62 723.835 1285.67 725.411 1282.71C728.617 1276.7 731.702 1270.67 734.682 1264.6C739.147 1255.51 743.371 1246.35 747.408 1237.06C748.256 1235.11 749.099 1233.16 749.931 1231.19C754.02 1221.54 757.918 1211.75 761.676 1201.75C765.173 1192.44 768.551 1182.96 771.849 1173.25C772.354 1171.77 772.857 1170.27 773.359 1168.78C773.426 1168.58 773.492 1168.38 773.558 1168.18C774.253 1166.1 774.945 1164.01 775.634 1161.91C776.011 1160.76 776.387 1159.61 776.763 1158.45C777.514 1156.14 778.261 1153.82 779.007 1151.48C779.558 1149.75 780.108 1148.01 780.657 1146.26C781.989 1142.02 783.313 1137.74 784.634 1133.41C787.471 1124.1 790.29 1114.57 793.12 1104.77C793.996 1101.74 794.874 1098.68 795.753 1095.6C795.802 1095.43 795.848 1095.25 795.896 1095.08C799.198 1083.35 802.031 1067.76 804.855 1050.82C807.42 1035.44 809.98 1018.93 812.877 1003.17C814.27 995.587 815.743 988.176 817.332 981.145C817.717 979.439 818.11 977.756 818.51 976.098C820.305 968.65 822.249 961.713 824.393 955.556C824.698 954.682 825.005 953.825 825.317 952.983C825.902 951.41 826.502 949.895 827.116 948.441C827.294 948.022 827.471 947.607 827.651 947.197C828.635 944.96 829.658 942.883 830.724 940.984C830.929 940.621 831.136 940.265 831.344 939.915C832.165 938.527 833.012 937.245 833.886 936.076C833.917 936.034 833.948 935.99 833.979 935.948C835.452 935.785 836.765 935.635 837.944 935.514C839.712 935.332 841.177 935.215 842.421 935.212C842.559 935.212 842.694 935.212 842.827 935.215C843.491 935.228 844.089 935.279 844.636 935.375C844.745 935.394 844.852 935.415 844.958 935.439C845.169 935.485 845.371 935.539 845.567 935.601C845.581 935.605 845.595 935.611 845.609 935.615C845.762 935.665 845.909 935.72 846.054 935.779C846.109 935.802 846.165 935.826 846.22 935.851C847.313 936.345 848.191 937.163 849.051 938.431C849.158 938.589 849.266 938.754 849.373 938.927C850.94 941.45 852.527 945.522 855.336 951.9L856.131 953.69C901.625 977.848 889.007 1008.15 901.152 1064.55C924.298 1172.01 960.534 1268.11 1018.72 1349.74C1045.58 1355.52 1049.01 1272.95 1044.63 1252.27C1035.35 1208.26 1017.18 1071.37 995.427 1043.07C848.291 851.747 567.594 806.084 520.915 492.943C507.993 392.564 515.172 286.698 554.87 198.07C556.074 194.792 571.86 155.518 571.883 155.448ZM1019.69 147.148C976.313 90.226 910.012 47.9385 848.564 49.9766C792.791 51.8244 736.505 83.0691 697.967 137.342C721.797 172.372 748.954 224.162 768.715 262.885C787.194 299.101 866.508 521.014 829.102 549.937C811.134 545.493 803.268 461.943 798.813 441.257C787.626 384.011 768.155 336.364 746.55 285.927C707.847 195.578 671.391 153.751 605.797 100.183C602.444 100.671 598.632 101.124 594.788 101.716C592.842 102.016 590.887 102.35 588.98 102.745C588.697 102.804 588.414 102.864 588.133 102.926C586.726 103.233 585.351 103.575 584.029 103.962C583.004 104.262 582.012 104.59 581.062 104.947C580.787 105.051 580.516 105.157 580.248 105.266C580.01 105.363 579.775 105.461 579.543 105.563L580.695 106.883C629.339 163.129 660.943 262.326 675.707 343.801C688.546 412.124 687.028 447.994 728.835 495.641C893.114 682.884 1151.4 717.817 1193.18 1054.33C1207.49 1168.07 1186.76 1284.68 1135.82 1377.5C1135.87 1380.71 1135.74 1382.75 1136.74 1385.96C1142.24 1403.33 1161.6 1417.06 1173.32 1426.25C1220.44 1463.27 1272.38 1478.61 1325.76 1459.33C1373.84 1441.96 1410.11 1395.65 1434.52 1338.84C1541.34 1090.12 1537.78 623.118 1483 348.358C1463.49 250.488 1431.04 142.167 1362.25 89.4776C1321.73 58.4136 1276.98 41.0291 1230.71 60.5958C1216.83 66.4701 1167.95 97.1357 1159.86 112.77C1136.84 157.386 1168.62 395.437 1148.46 430.548C1144.65 437.16 1140.02 439.416 1133.95 438.885C1121.48 437.795 1121.08 422.563 1119.17 409.726C1104.19 310.014 1074.64 219.254 1019.69 147.148ZM556.306 1233.73C549.616 1246.29 557.925 1409.74 552.781 1442.89L554.518 1445.33C583.142 1432.6 592.373 1430.19 623.224 1432.07C627.173 1432.3 643.569 1434.84 645.045 1434.54L660.914 1424.18L659.119 1422.21C623.482 1382.45 597.223 1340.28 575.063 1285.52C569.103 1270.75 563.058 1243.25 556.306 1233.73ZM591.843 191.424C555.738 242.776 541.206 371.58 545.111 438.587C563.747 752.453 841.222 818.728 995.028 982.859C1099.46 1094.26 1117.15 1286.25 1028.25 1422.01L1026.09 1425.28C1029.56 1428.66 1032.34 1431.5 1035.53 1434.27C1036.11 1434.77 1036.7 1435.27 1037.31 1435.78C1038.23 1436.53 1039.19 1437.28 1040.22 1438.05C1106.6 1409.48 1157.12 1253.84 1164.41 1165.7C1199.21 744.912 839.331 722.431 674.948 481.383C609.805 385.862 642.813 297.701 599.255 195.915C597.062 190.786 596.019 191.918 591.843 191.424ZM1481.71 183.058C1477.1 195.771 1477.55 198.368 1476.88 212.936C1479.14 229.264 1485.29 227.611 1486.09 231.543C1493.6 268.16 1506.74 308.43 1513.46 344.673C1567.1 634.294 1580.09 1175.05 1431.73 1411.05L1456.57 1382.08L1457.87 1386.52L1460.98 1388.29C1475.59 1374.13 1511.07 1296.51 1517.2 1267.41L1530.76 1252.97C1536.21 1218.86 1545.84 1198.44 1554.16 1167.27C1615.8 935.714 1616.35 628.982 1562.29 393.617C1553.93 357.19 1541.39 316.088 1530.11 281.081C1526.21 269.016 1514.38 255.531 1513.02 247.719C1508.09 219.926 1497.24 220.293 1487.03 193.88C1488.53 186.679 1488.5 188.42 1488.65 181.069L1481.71 183.058ZM183.714 176.218C160.108 211.749 138.979 242.606 120.768 283.681C41.7202 461.983 24.4356 656.087 35.5106 859.398C43.3403 1003.17 71.1651 1144.68 131.349 1266C141.396 1286.48 171.865 1347.76 188.435 1356.35C189.402 1354.08 190.112 1351.96 190.625 1349.96C190.753 1349.46 190.869 1348.96 190.974 1348.47C191.13 1347.74 191.261 1347.02 191.37 1346.32C191.551 1345.15 191.67 1344.01 191.74 1342.89C191.81 1341.78 191.832 1340.7 191.82 1339.63C191.818 1339.42 191.814 1339.21 191.809 1339C191.779 1337.72 191.704 1336.48 191.609 1335.24C191.452 1333.18 191.24 1331.14 191.088 1329.06C190.844 1325.74 190.754 1322.3 191.288 1318.48C191.355 1318 191.431 1317.52 191.518 1317.02C191.78 1315.55 192.137 1314.02 192.616 1312.41C193.055 1312.3 193.465 1312.21 193.85 1312.12C194.621 1311.94 195.293 1311.79 195.893 1311.69C196.194 1311.64 196.477 1311.59 196.745 1311.56C197.013 1311.53 197.267 1311.5 197.511 1311.49C200.187 1311.32 201.567 1312.28 206.33 1314.35C217.952 1336.94 203.966 1347.5 210.785 1364.1C220.247 1355.75 217.843 1355.22 227.614 1354.55C234.5 1361.03 236.74 1368.15 241.053 1377.87L245.358 1361.56C244.786 1354.61 244.669 1355.38 242.303 1349.9C128.79 1087.41 125.515 476.19 224.398 221.412C223.166 213.511 225.182 206.182 224.267 193.78C224.231 193.284 224.189 192.78 224.142 192.268C223.887 189.448 223.479 186.372 222.85 182.979C222.793 182.67 222.735 182.359 222.674 182.045C221.211 183.938 220.32 185.012 219.689 185.821C219.307 186.313 219.02 186.707 218.762 187.128C218.083 188.233 217.592 189.527 216.044 193.255C213.204 210.783 188.71 254.374 180.957 273.804C108.707 454.886 88.3333 699.263 107.456 916.526C107.597 918.132 107.742 919.736 107.888 921.338C109.854 942.975 112.213 964.336 114.951 985.33C115.611 990.387 116.29 995.423 116.994 1000.44C119.329 1017.07 121.903 1033.46 124.713 1049.55C125.586 1054.55 126.485 1059.52 127.403 1064.46C129.081 1073.49 130.83 1082.43 132.657 1091.25C134.925 1102.21 137.356 1113.23 139.928 1124.27C140.794 1127.99 141.677 1131.7 142.574 1135.42C143.273 1138.32 143.981 1141.21 144.698 1144.11C145.184 1146.07 145.676 1148.03 146.171 1149.99C154.164 1181.68 163.201 1213.14 172.811 1243.15C173.149 1244.2 173.539 1245.25 173.97 1246.29C174.315 1247.12 174.688 1247.95 175.082 1248.77C176.993 1252.77 179.408 1256.66 181.74 1260.55C182.155 1261.25 182.567 1261.94 182.974 1262.63C183.522 1263.57 184.06 1264.51 184.579 1265.45C185.029 1266.26 185.465 1267.08 185.881 1267.9C186.147 1268.43 186.403 1268.96 186.651 1269.49C186.779 1269.76 186.906 1270.03 187.028 1270.3C187.543 1271.44 188.009 1272.59 188.414 1273.75C188.719 1274.63 188.99 1275.51 189.219 1276.4C189.471 1277.38 189.672 1278.37 189.814 1279.37C191.86 1293.73 188.946 1301.55 183.633 1313.52C183.149 1312.96 182.769 1312.54 182.471 1312.21C181.919 1311.6 181.641 1311.3 181.472 1311.06C181.411 1310.97 181.363 1310.9 181.323 1310.82C181.293 1310.76 181.267 1310.7 181.241 1310.63C181.139 1310.36 181.049 1309.98 180.765 1309.19C180.48 1308.4 180.002 1307.19 179.127 1305.26C178.286 1303.41 177.453 1301.55 176.627 1299.69C176.214 1298.76 175.803 1297.82 175.393 1296.89C174.82 1295.58 174.251 1294.27 173.684 1292.96C171.825 1288.65 170.002 1284.31 168.218 1279.96C166.47 1275.69 164.759 1271.4 163.081 1267.08C161.779 1263.74 160.497 1260.38 159.236 1257.01C157.072 1251.22 154.969 1245.4 152.923 1239.54C152.48 1238.27 152.041 1237 151.603 1235.73C150.357 1232.1 149.131 1228.47 147.928 1224.82C146.302 1219.89 144.715 1214.94 143.166 1209.96C137.412 1191.49 132.18 1172.72 127.401 1153.72C124.718 1143.06 122.176 1132.32 119.768 1121.52C119.307 1119.45 118.85 1117.37 118.397 1115.3C118.171 1114.26 117.947 1113.22 117.724 1112.18C116.157 1104.91 114.649 1097.61 113.195 1090.29C112.264 1085.6 111.359 1080.91 110.472 1076.2C109.776 1072.51 109.09 1068.81 108.42 1065.11C107.277 1058.8 106.171 1052.47 105.1 1046.14C100.637 1019.73 96.7841 993.143 93.3759 966.525C92.9251 963.005 92.4813 959.483 92.0458 955.962C91.0024 947.525 90.0017 939.089 89.039 930.656C88.3371 924.509 87.6538 918.365 86.9901 912.225C86.8652 911.069 86.7451 909.902 86.6298 908.726C86.5144 907.549 86.404 906.362 86.2978 905.166C86.2446 904.568 86.1924 903.968 86.1415 903.365C85.9888 901.558 85.8457 899.729 85.7118 897.883C85.6225 896.652 85.5374 895.413 85.456 894.166C85.2931 891.673 85.1457 889.15 85.0116 886.602C84.9446 885.328 84.8807 884.048 84.8202 882.762C83.7313 859.617 83.6688 834.66 83.3827 811.579C83.3509 809.015 83.3163 806.474 83.2773 803.961C83.1992 798.935 83.104 794.021 82.9765 789.261C82.9334 787.654 82.8929 786.047 82.8544 784.439C82.7654 780.723 82.6875 777.003 82.623 773.279C81.9288 733.262 82.6499 692.781 84.9208 652.3C84.9965 650.95 85.0741 649.601 85.1532 648.251C86.3404 628.011 87.9163 607.774 89.8974 587.6C90.0294 586.255 90.1631 584.91 90.2987 583.565C92.1982 564.744 94.4519 545.979 97.0732 527.319C97.2604 525.987 97.4495 524.654 97.6405 523.322C98.4045 517.995 99.1989 512.677 100.023 507.368C100.229 506.041 100.437 504.715 100.647 503.389C106.525 466.264 113.897 429.638 122.873 393.887C124.155 388.779 125.47 383.69 126.818 378.619C133.558 353.267 141.125 328.388 149.557 304.12C149.978 302.907 150.402 301.695 150.828 300.484C152.532 295.643 154.27 290.827 156.044 286.036C165.972 259.219 183.479 214.275 196.951 190.759L183.714 176.218ZM1520.71 175.459C1515.88 180.778 1511.45 184.801 1507.76 191.354C1563.69 305.483 1592.13 406.548 1606.59 542.72C1613.29 578.011 1606.05 623.914 1616.37 656.11C1623.19 677.341 1620.51 702.491 1621.05 724.801C1624.76 879.446 1608.93 1033.65 1572.3 1180.36C1560.51 1227.56 1531.73 1278.52 1516.11 1323.35L1515.38 1325.48L1515.06 1326.74C1514.95 1327.15 1514.84 1327.54 1514.74 1327.93C1513.9 1331.02 1513.14 1333.4 1512.54 1335.42C1512.08 1336.93 1511.72 1338.24 1511.47 1339.47C1511.3 1340.29 1511.19 1341.08 1511.13 1341.89C1511.11 1342.29 1511.1 1342.69 1511.1 1343.1C1511.11 1343.31 1511.11 1343.52 1511.13 1343.73C1511.15 1344.15 1511.19 1344.58 1511.25 1345.03C1511.45 1346.59 1511.88 1348.34 1512.59 1350.5L1520.68 1356.45C1521.08 1355.98 1521.5 1355.52 1521.9 1355.08C1709.65 1085.97 1717.19 587.189 1582.1 277.931C1564.91 238.54 1541.14 206.426 1520.71 175.459ZM1123.37 99.2208C1101.87 106.899 1083.01 107.149 1061.45 99.6348C1060.47 99.6472 1059.54 99.6499 1058.66 99.6475C1056.9 99.6429 1055.35 99.6182 1053.95 99.6007C1053.25 99.5919 1052.59 99.5846 1051.96 99.5841C1050.39 99.5827 1049.02 99.6196 1047.76 99.753C1047.3 99.8017 1046.85 99.8639 1046.41 99.9415C1046.01 100.013 1045.61 100.096 1045.22 100.196C1042.79 100.819 1040.51 102.045 1037.49 104.415C1036.89 104.886 1036.26 105.402 1035.6 105.968C1034.63 106.786 1033.6 107.709 1032.46 108.747C1064.12 136.373 1081.56 187.027 1104.58 225.626C1109.39 233.665 1117.43 269.102 1121.56 281.596C1121.88 266.954 1129.85 250.746 1128.43 241.44C1120.89 192.023 1121.01 149.972 1123.37 99.2208Z" fill="white"/>
</svg>
